<?xml version="1.0" standalone="no"?>
<!DOCTYPE svg PUBLIC "-//W3C//DTD SVG 20010904//EN"
 "http://www.w3.org/TR/2001/REC-SVG-20010904/DTD/svg10.dtd">
<svg version="1.0" xmlns="http://www.w3.org/2000/svg"
 width="482.000000pt" height="484.000000pt" viewBox="0 0 482.000000 484.000000"
 preserveAspectRatio="xMidYMid meet">

  <g transform="translate(0.000000,484.000000) scale(0.100000,-0.100000)"
  fill="#000000" stroke="none">
  <path d="M2106 4814 c-1004 -134 -1809 -863 -2041 -1849 -42 -179 -59 -326
  -59 -535 0 -359 63 -669 201 -978 341 -767 1024 -1286 1865 -1418 174 -28 518
  -25 705 4 412 66 810 238 1127 490 100 79 297 273 373 367 242 299 421 676
  493 1035 42 211 53 342 47 563 -6 215 -23 341 -72 533 -181 706 -691 1307
  -1361 1603 -177 78 -356 132 -574 173 -143 26 -545 34 -704 12z m1024 -1274
  l705 -440 -1420 0 c-780 0 -1415 4 -1409 8 5 5 261 165 569 357 308 192 619
  386 690 431 72 46 137 83 145 83 8 1 332 -197 720 -439z m-1469 -887 c376
  -235 701 -431 721 -437 28 -7 45 -6 75 6 33 13 449 269 1242 766 80 50 149 89
  153 86 4 -3 8 -324 8 -713 0 -816 3 -782 -83 -866 -32 -31 -68 -55 -93 -63
  -32 -9 -330 -12 -1282 -12 l-1240 0 -53 28 c-60 31 -113 93 -129 150 -9 35
  -16 1482 -6 1482 2 0 312 -192 687 -427z"/>
  </g>
  <style>
    @media (prefers-color-scheme:dark){:root{filter:invert(100%)}}
  </style>
</svg>